HIERARCHY
ROOT Hips
{
  OFFSET 11.6681 95.1687 -25.963
  CHANNELS 6 Xposition Yposition Zposition Zrotation Xrotation Yrotation
  JOINT ToSpine
  {
    OFFSET -2.69724 7.43032 -0.144315
    CHANNELS 3 Zrotation Xrotation Yrotation
    JOINT Spine
    {
      OFFSET -0.0310711 10.7595 1.96963
      CHANNELS 3 Zrotation Xrotation Yrotation
      JOINT Spine1
      {
        OFFSET 13.1342 3.43533 0.764692
        CHANNELS 3 Zrotation Xrotation Yrotation
        JOINT Neck
        {
          OFFSET 29.8703 7.82586 -0.130764
          CHANNELS 3 Zrotation Xrotation Yrotation
          JOINT Head
          {
            OFFSET 9.52751 0.295786 -0.907742
            CHANNELS 3 Zrotation Xrotation Yrotation
            End Site
            {
              OFFSET 16.4037 0.713936 2.7358
            }
          }
        }
        JOINT LeftShoulder
        {
          OFFSET 27.5574 4.95586 2.47156
          CHANNELS 3 Zrotation Xrotation Yrotation
          JOINT LeftArm
          {
            OFFSET 1.20734 -0.998971 20.1238
            CHANNELS 3 Zrotation Xrotation Yrotation
            JOINT LeftForeArm
            {
              OFFSET 26.8049 -0.0536703 -0.155908
              CHANNELS 3 Zrotation Xrotation Yrotation
              JOINT LeftHand
              {
                OFFSET 26.6817 0 0.320147
                CHANNELS 3 Zrotation Xrotation Yrotation
                End Site
                {
                  OFFSET 18.6119 0 0.382219
                }
              }
            }
          }
        }
        JOINT RightShoulder
        {
          OFFSET 27.5927 4.71444 -2.65209
          CHANNELS 3 Zrotation Xrotation Yrotation
          JOINT RightArm
          {
            OFFSET 2.83739 -1.17114 -18.7564
            CHANNELS 3 Zrotation Xrotation Yrotation
            JOINT RightForeArm
            {
              OFFSET 28.839 -0.0548439 1.22491
              CHANNELS 3 Zrotation Xrotation Yrotation
              JOINT RightHand
              {
                OFFSET 26.5114 0 -0.101894
                CHANNELS 3 Zrotation Xrotation Yrotation
                End Site
                {
                  OFFSET 18.2168 0 0
                }
              }
            }
          }
        }
      }
    }
  }
  JOINT LeftUpLeg
  {
    OFFSET -4.76168 -1.9167 -10.2353
    CHANNELS 3 Zrotation Xrotation Yrotation
    JOINT LeftLeg
    {
      OFFSET 2.55951 -42.0585 -8.02213
      CHANNELS 3 Zrotation Xrotation Yrotation
      JOINT LeftFoot
      {
        OFFSET 3.16357 -42.5282 -3.95426
        CHANNELS 3 Zrotation Xrotation Yrotation
        JOINT LeftToeBase
        {
          OFFSET 0.346054 -6.02161 12.8035
          CHANNELS 3 Zrotation Xrotation Yrotation
          End Site
          {
            OFFSET 0.134235 -1.35082 5.13018
          }
        }
      }
    }
  }
  JOINT RightUpLeg
  {
    OFFSET -4.94151 -1.41743 10.6446
    CHANNELS 3 Zrotation Xrotation Yrotation
    JOINT RightLeg
    {
      OFFSET -2.56294 -42.0364 -7.94377
      CHANNELS 3 Zrotation Xrotation Yrotation
      JOINT RightFoot
      {
        OFFSET -3.0952 -42.555 -4.02241
        CHANNELS 3 Zrotation Xrotation Yrotation
        JOINT RightToeBase
        {
          OFFSET -0.0828122 -6.13587 12.8035
          CHANNELS 3 Zrotation Xrotation Yrotation
          End Site
          {
            OFFSET -0.131328 -1.35082 5.13018
          }
        }
      }
    }
  }
}
MOTION
Frames:	8
Frame Time:	0.0333333
-36.1634 90.8225 -30.2497 68.64 -17.2094 -6.64866 -70.1915 0 88.8779 111.109 73.1446 -22.0676 -4.44171 21.6613 10.4798 -120.21 39.4512 154.748 163.739 82.934 -132.017 1.13378 -9.12689 -17.8749 -71.2992 30.9717 -142.14 27.6301 -3.15738 -95.3005 0.420957 0.000575647 0.35866 -1.60111 7.68702 35.1284 -124.609 5.95587 87.6308 10.0269 -8.27501 50.9479 0.58676 0.000330868 0.0646654 -38.7067 19.0541 93.7386 -6.2728 62.3925 -3.30475 -4.10204 -8.91428 -0.584526 2.58038 -8.33595 11.2985 -49.5137 -20.947 79.6927 0.973454 36.6077 2.70556 -3.00132 -7.82159 0.944083 2.73948 -21.5323 -0.522997 
-39.0444 90.1716 -30.6439 67.9671 -16.3239 -6.28621 -70.1915 0 88.8779 100.326 73.2426 -11.5919 -2.67365 21.0035 10.4194 -120.548 39.1043 154.849 167.701 82.7888 -136.702 1.09408 -9.62522 -18.262 -71.0653 30.3965 -145.818 29.5521 -4.19631 -96.633 0.420957 0.000575647 0.35866 -1.83456 7.85458 37.6399 -124.21 6.23224 88.4294 10.7938 -9.37674 49.5575 0.58676 0.000330868 0.0646654 -43.2403 18.6786 94.5684 -6.78143 65.0893 -0.0946434 -3.15655 -7.72009 -0.509818 3.87806 -10.1794 9.36685 -46.6029 -20.1655 81.0452 1.64031 38.3193 3.07175 -4.64178 -8.21782 1.07258 3.02736 -28.2999 -5.63038 
-41.6771 89.6629 -31.441 67.8081 -14.4094 -4.19155 -70.1915 0 88.8779 96.1353 72.3409 -6.72361 -2.17744 19.7095 10.9478 -121.864 39.1287 155.212 169.777 82.7156 -140.281 1.05149 -10.1105 -18.7598 -69.0357 29.6768 -150.159 29.9067 -4.53551 -97.0994 0.420957 0.000575647 0.35866 -1.97419 7.95397 39.0787 -122.974 7.01063 88.1765 9.4678 -8.62022 48.1672 0.58676 0.000330868 0.0646654 -47.6064 18.5016 94.4739 -5.96343 63.5875 0.299744 -2.17683 -6.21075 -0.416665 6.6137 -15.01 11.5392 -44.5434 -19.437 80.7129 2.24713 40.6773 2.96425 -0.543926 -11.17 1.02777 2.76571 -25.7361 -6.8001 
-44.0324 89.3241 -32.5409 67.8528 -12.1938 -2.47744 -70.1915 0 88.8779 93.4159 71.7728 -4.66552 -2.23397 18.3556 12.8951 -123.539 39.8878 156.141 165.562 82.8296 -137.49 1.03774 -10.246 -18.5459 -65.8851 29.6919 -154.588 29.8591 -4.48413 -97.0255 0.420957 0.000575647 0.35866 -1.95811 8.14605 38.2609 -122.543 6.80653 86.4664 9.6813 -9.27965 46.7226 0.58676 0.000330868 0.0646654 -52.7486 17.5186 94.9304 -4.65863 57.8888 -1.72922 -5.07125 -7.9227 -0.411436 11.934 -22.8958 15.9386 -43.2883 -19.8634 79.0116 2.57277 42.0654 5.19006 -0.210793 -12.0927 1.09656 2.46616 -25.7565 -11.3554 
-46.1585 89.1428 -33.703 67.4732 -9.22345 -1.04707 -70.1915 0 88.8779 86.3474 71.4715 0.635083 -1.73347 17.5714 14.3701 -122.367 39.1678 151.882 177.124 83.8716 -149.182 0.984201 -10.9636 -17.267 -64.1118 28.3481 -158.553 30.4152 -4.15086 -96.3088 0.420957 0.000575647 0.35866 -1.96783 7.60204 40.2229 -122.603 8.8956 84.979 9.44486 -9.46148 45.4594 0.58676 0.000330868 0.0646654 -55.557 17.0075 95.3509 -3.46132 52.1333 -2.04302 -5.22423 -11.7213 -0.879199 12.5366 -23.5875 17.5568 -42.335 -21.0536 76.6008 2.886 42.6595 7.20555 -1.15816 -11.0836 1.04871 2.09855 -27.4618 -15.9069 
-48.1602 88.8806 -34.7537 67.1891 -6.7533 -0.77536 -70.1915 0 88.8779 81.6505 71.1613 3.1655 -1.68001 16.8316 15.3095 -124.357 40.0362 152.239 167.107 84.0263 -141.175 0.957196 -11.2636 -17.522 -64.1773 26.3808 -159.176 31.6897 -4.47673 -96.4827 0.420957 0.000575647 0.35866 -1.9039 7.37285 40.2112 -123.544 8.64352 83.9942 9.31679 -9.80389 44.0544 0.58676 0.000330868 0.0646654 -56.3007 16.5964 96.3775 -3.28149 48.4648 -4.93803 -4.01403 -16.482 -1.4787 11.1479 -21.7532 17.5797 -40.5187 -22.9057 76.0419 3.00465 44.134 7.1262 -1.71319 -10.6263 1.03838 1.92815 -27.5233 -17.869 
-50.1072 88.6126 -35.7581 68.2002 -4.45599 0.0657362 -70.1915 0 88.8779 82.7606 71.4275 0.0254782 -1.68689 16.5984 16.0927 -126.223 40.7055 150.496 163.578 84.7125 -138.808 0.925253 -11.7619 -16.7968 -64.5763 25.398 -160.105 30.4033 -4.44243 -96.7939 0.420957 0.000575647 0.35866 -1.7613 6.85771 40.13 -125.367 8.3914 82.5996 8.28251 -8.84723 43.5802 0.58676 0.000330868 0.0646654 -55.4571 17.7868 98.2191 -4.31778 48.759 -12.3435 -1.69753 -19.3776 -1.72021 12.2404 -22.5757 24.364 -40.7051 -25.0469 73.9309 2.9888 45.0636 6.27546 -1.63942 -9.89103 0.987227 2.16481 -25.8547 -15.5767 
-51.9049 88.2766 -36.6089 69.3595 -2.16344 1.19329 -70.1915 0 88.8779 86.0767 71.7129 -4.35281 -2.36716 16.7355 16.0111 -125.769 40.772 147.524 159.09 85.3909 -134.446 0.859439 -12.8568 -16.195 -64.439 24.5658 -160.782 29.1871 -3.95824 -96.3231 0.420957 0.000575647 0.35866 -1.71607 6.26466 41.9819 -126.215 10.2022 81.5372 8.07379 -8.71595 43.2854 0.58676 0.000330868 0.0646654 -52.6891 19.5724 99.2729 -5.21974 52.6069 -14.3115 0.424126 -21.1018 -1.77941 10.7096 -20.7261 24.8834 -41.3894 -26.8935 71.7728 2.99815 45.9888 5.56957 -0.48197 -9.27854 0.890869 2.30029 -20.0928 -12.6052 
